<svg width="136" height="142" viewBox="0 0 136 142" fill="none" xmlns="http://www.w3.org/2000/svg">
<g id="Frame">
<g id="SVGRepo_iconCarrier">
<g id="space_2">
<path id="Path 51" d="M19.4103 107.524C13.1073 118.796 10.9568 127.493 14.3952 131.225C21.7181 139.173 51.6433 121.494 81.2327 91.7304C110.822 61.9672 128.868 31.4274 121.545 23.4795C117.771 19.388 107.992 22.095 95.3517 29.7588" stroke="#498EFC" stroke-width="2" stroke-linecap="round" stroke-linejoin="round"/>
<path id="Path 52" d="M115.043 110.169C119.446 102.711 122.165 94.3044 122.995 85.5863C123.824 76.8682 122.742 68.0673 119.831 59.8506C116.919 51.6339 112.254 44.2172 106.19 38.1623C100.125 32.1075 92.8202 27.5735 84.8284 24.904" stroke="#498EFC" stroke-width="2" stroke-linejoin="round"/>
<path id="Path 53" d="M51.2141 24.8995C43.7739 27.3943 36.9252 31.5086 31.1201 36.9708C25.3151 42.433 20.6858 49.1187 17.5378 56.5866C14.3899 64.0545 12.7949 72.1347 12.8583 80.2936C12.9216 88.4526 14.6418 96.5047 17.9053 103.918C21.1688 111.332 25.9014 117.938 31.7905 123.302C37.6796 128.665 44.5913 132.663 52.0692 135.031C59.5472 137.4 67.4213 138.085 75.1717 137.042C82.922 135.999 90.3722 133.251 97.0305 128.98" stroke="#498EFC" stroke-width="2" stroke-linejoin="round"/>
<path id="Ellipse 17" d="M68.0149 39.9387C77.4041 39.9387 85.0155 31.9915 85.0155 22.1882C85.0155 12.3848 77.4041 4.43762 68.0149 4.43762C58.6258 4.43762 51.0144 12.3848 51.0144 22.1882C51.0144 31.9915 58.6258 39.9387 68.0149 39.9387Z" stroke="#F1D17C" stroke-width="2" stroke-linecap="round" stroke-linejoin="round"/>
<path id="Ellipse 18" d="M106.266 133.129C113.308 133.129 119.016 127.169 119.016 119.816C119.016 112.464 113.308 106.503 106.266 106.503C99.2242 106.503 93.5156 112.464 93.5156 119.816C93.5156 127.169 99.2242 133.129 106.266 133.129Z" stroke="#F1D17C" stroke-width="2" stroke-linecap="round" stroke-linejoin="round"/>
</g>
</g>
</g>
</svg>
