<svg width="202" height="208" viewBox="0 0 202 208" fill="none" xmlns="http://www.w3.org/2000/svg">
<g id="Layer_1" clip-path="url(#clip0_24_226)">
<g id="SVGRepo_iconCarrier">
<path id="Vector" d="M69.763 99.2752C58.8969 88.4091 58.8969 70.7911 69.7628 59.9253C80.6286 49.0594 98.2469 49.0592 109.113 59.9253L170.105 120.918C172.279 123.091 172.279 126.615 170.106 128.788C167.933 130.961 164.409 130.961 162.236 128.787L152.399 118.95C150.225 116.776 146.702 116.776 144.528 118.95C142.355 121.123 142.355 124.646 144.529 126.82L191.749 174.04C193.922 176.213 193.922 179.737 191.749 181.91C189.576 184.083 186.052 184.083 183.879 181.91L158.301 156.332C156.128 154.159 152.605 154.159 150.432 156.332C148.259 158.505 148.259 162.029 150.432 164.202L158.302 172.072C160.475 174.245 160.475 177.768 158.302 179.941C156.128 182.114 152.605 182.114 150.432 179.942L69.7642 99.274L69.763 99.2752Z" fill="#F9B233"/>
<path id="Vector_2" d="M77.6312 91.4056C84.1516 97.9259 94.7232 97.9259 101.244 91.4056C107.764 84.8852 107.764 74.3136 101.244 67.7933C94.7232 61.2729 84.1516 61.2729 77.6312 67.7933C71.1109 74.3136 71.1109 84.8852 77.6312 91.4056Z" fill="#77AAD4"/>
<path id="Vector_3" d="M77.6328 91.4053C84.1527 97.9252 94.7233 97.9252 101.243 91.4053C107.763 84.8855 107.763 74.3148 101.243 67.795C101.243 67.795 99.8292 86.4179 77.6328 91.4053Z" fill="#1D71B8"/>
<g id="Group">
<path id="Vector_4" d="M148.519 181.854L67.8514 101.187C55.9484 89.2838 55.9484 69.9165 67.8514 58.0135C79.7544 46.1105 99.1218 46.1105 111.025 58.0135L172.017 119.006C175.241 122.23 175.241 127.475 172.017 130.699C168.794 133.923 163.548 133.923 160.324 130.699L150.487 120.862C149.371 119.746 147.556 119.746 146.44 120.862C145.324 121.977 145.325 123.793 146.44 124.908L193.66 172.128C196.884 175.352 196.884 180.598 193.66 183.821C190.437 187.045 185.191 187.045 181.967 183.821L156.389 158.244C155.274 157.128 153.459 157.128 152.343 158.244C151.228 159.36 151.228 161.175 152.343 162.29L160.213 170.16C163.437 173.384 163.437 178.63 160.213 181.853C156.989 185.077 151.743 185.078 148.519 181.854ZM107.201 61.8368C97.4066 52.0421 81.4696 52.0421 71.6748 61.8368C61.88 71.6316 61.88 87.5687 71.6748 97.3634L152.342 178.031C153.458 179.147 155.273 179.146 156.389 178.031C157.504 176.915 157.504 175.1 156.389 173.984L148.519 166.114C145.295 162.891 145.295 157.645 148.519 154.421C151.743 151.198 156.988 151.198 160.212 154.421L185.789 179.999C186.905 181.115 188.721 181.114 189.836 179.999C190.952 178.883 190.952 177.068 189.836 175.952L142.616 128.732C139.392 125.509 139.392 120.263 142.616 117.039C145.84 113.815 151.086 113.815 154.309 117.039L164.147 126.876C165.263 127.992 167.078 127.992 168.193 126.877C169.309 125.761 169.309 123.946 168.193 122.83L107.201 61.8376L107.201 61.8368Z" fill="#1D1D1B"/>
<path id="Vector_5" d="M75.7214 93.3168C68.158 85.7535 68.1582 73.447 75.7216 65.8837C83.285 58.3203 95.5917 58.3203 103.155 65.8834C110.718 73.4468 110.718 85.7535 103.155 93.3168C95.5914 100.88 83.2845 100.88 75.7214 93.3168ZM99.3315 69.7068C93.8763 64.2516 85.0002 64.2518 79.545 69.707C74.0898 75.1622 74.0898 84.0386 79.5448 89.4935C84.9999 94.9487 93.8763 94.9487 99.3315 89.4935C104.787 84.0383 104.787 75.1619 99.3315 69.7068Z" fill="#1D1D1B"/>
</g>
<g id="Group_2">
<path id="Vector_6" d="M128.735 91.4618L116.928 79.6557L113.105 83.4788L124.911 95.285L128.735 91.4618Z" fill="white"/>
<path id="Vector_7" d="M132.667 119.006L109.058 95.3969L105.235 99.22L128.844 122.83L132.667 119.006Z" fill="white"/>
<path id="Vector_8" d="M99.2186 109.17L91.3486 101.3L87.5255 105.123L95.3955 112.993L99.2186 109.17Z" fill="white"/>
<path id="Vector_9" d="M132.665 142.616L103.152 113.104L99.3292 116.927L128.842 146.439L132.665 142.616Z" fill="white"/>
<path id="Vector_10" d="M142.505 105.232L132.667 95.3944L128.844 99.2175L138.681 109.055L142.505 105.232Z" fill="white"/>
</g>
<g id="Group_3">
<path id="Vector_11" d="M128.731 59.9806L120.861 52.1107L117.038 55.9338L124.908 63.8037L128.731 59.9806Z" fill="#1D1D1B"/>
<path id="Vector_12" d="M211.367 134.745L136.603 59.9813L132.78 63.8044L207.544 138.568L211.367 134.745Z" fill="#1D1D1B"/>
<path id="Vector_13" d="M101.184 146.549L83.4779 128.842L79.6548 132.665L97.3613 150.372L101.184 146.549Z" fill="#1D1D1B"/>
<path id="Vector_14" d="M152.341 205.577L101.187 154.422L97.3639 158.245L148.518 209.4L152.341 205.577Z" fill="#1D1D1B"/>
<path id="Vector_15" d="M234.979 138.681L177.921 81.6233L174.098 85.4464L231.156 142.504L234.979 138.681Z" fill="#1D1D1B"/>
<path id="Vector_16" d="M201.528 144.584L195.625 138.681L191.802 142.504L197.705 148.407L201.528 144.584Z" fill="#1D1D1B"/>
<path id="Vector_17" d="M211.368 166.225L203.499 158.355L199.675 162.178L207.545 170.048L211.368 166.225Z" fill="#1D1D1B"/>
<path id="Vector_18" d="M103.154 179.996L99.2192 176.061L95.3961 179.885L99.3308 183.819L103.154 179.996Z" fill="#1D1D1B"/>
<path id="Vector_19" d="M150.377 227.218L112.993 189.835L109.17 193.658L146.553 231.042L150.377 227.218Z" fill="#1D1D1B"/>
<path id="Vector_20" d="M170.05 199.673L162.18 191.803L158.357 195.626L166.227 203.496L170.05 199.673Z" fill="#1D1D1B"/>
</g>
</g>
</g>
<defs>
<clipPath id="clip0_24_226">
<rect width="178" height="178" fill="white" transform="translate(125.865) rotate(45)"/>
</clipPath>
</defs>
</svg>
