<svg width="151" height="151" viewBox="0 0 151 151" fill="none" xmlns="http://www.w3.org/2000/svg">
<g id="_x34_" clip-path="url(#clip0_21_130)">
<g id="SVGRepo_iconCarrier">
<g id="Group">
<g id="Group_2">
<g id="Group_3">
<path id="Vector" d="M66.1436 98.9626C68.0905 105.215 64.6009 111.861 58.3488 113.808C52.0976 115.754 45.4504 112.265 43.5035 106.012C41.557 99.7608 45.0478 93.1134 51.299 91.167C57.5511 89.2202 64.197 92.7112 66.1436 98.9626Z" fill="#F9D791"/>
<g id="Group_4">
<path id="Vector_2" d="M119.076 82.4808C121.023 88.7333 117.533 95.3791 111.28 97.326C105.028 99.2729 98.382 95.7831 96.4351 89.5306C94.4885 83.2791 97.978 76.6322 104.231 74.6853C110.483 72.7384 117.129 76.2293 119.076 82.4808Z" fill="#F5BF41"/>
</g>
</g>
</g>
<g id="Group_5">
<path id="Vector_3" d="M69.2962 101.002C71.506 108.098 79.0499 112.061 86.1479 109.851L78.1458 84.1513C71.0477 86.3614 67.0864 93.9048 69.2962 101.002Z" fill="#F9D791"/>
<path id="Vector_4" d="M78.146 84.1512L86.1482 109.851C93.2465 107.64 97.2071 100.096 94.9974 92.999C92.7876 85.902 85.2443 81.941 78.146 84.1512Z" fill="#F9D791"/>
</g>
<g id="Group_6">
<g id="Group_7">
<path id="Vector_5" d="M70.4609 59.4702L67.7115 58.0263L64.9614 56.5811C35.5335 67.0912 16.3953 88.475 19.8312 99.5093C20.1249 100.453 20.5877 101.326 21.2043 102.131C24.6873 106.691 33.1351 109.058 44.3849 109.126C55.5049 109.197 69.36 107.022 83.8612 102.507L70.4607 59.4703L70.4609 59.4702Z" fill="#EAEAEA"/>
<path id="Vector_6" d="M73.348 53.9693L71.9045 56.7203L70.4606 59.4699L83.8612 102.507C98.3654 97.9903 111.003 91.9162 120.118 85.5446C129.34 79.1016 134.951 72.3571 135.23 66.6261C135.28 65.6133 135.164 64.6321 134.87 63.6886C131.435 52.6543 103.541 45.915 73.348 53.9693Z" fill="#D3D3D3"/>
</g>
<path id="Vector_7" d="M135.23 66.6261L71.9045 56.7205L70.4606 59.4702L120.118 85.5448C129.34 79.1015 134.951 72.357 135.23 66.6261Z" fill="#C7C6C6"/>
<path id="Vector_8" d="M64.9611 56.5808C35.5335 67.091 16.3953 88.4748 19.8311 99.5092C20.1248 100.452 20.5876 101.326 21.2043 102.131L67.7112 58.0262L64.9611 56.5808Z" fill="#FAFAFB"/>
<path id="Vector_9" d="M44.3848 109.126C55.5048 109.197 69.3599 107.022 83.8611 102.507L70.4606 59.4702L44.3848 109.126Z" fill="#E3E2E2"/>
</g>
<g id="Group_8">
<path id="Vector_10" d="M33.8997 66.0083L39.688 84.5979C41.4952 90.4018 58.7149 90.2016 78.146 84.1512L71.8538 63.9436C52.4227 69.994 35.4287 70.919 33.8997 66.0083Z" fill="#DDDDDE"/>
<path id="Vector_11" d="M71.8539 63.9436L78.146 84.1512C97.5771 78.1008 111.867 68.4896 110.06 62.6858L104.272 44.0961C105.801 49.0069 91.2847 57.8933 71.8539 63.9436Z" fill="#D6D7D7"/>
</g>
<g id="Group_9">
<path id="Vector_12" d="M34.4336 68.2602C36.1571 73.7953 53.3754 73.3572 72.8928 67.28L66.6498 47.2305C47.1325 53.3078 32.7087 62.7208 34.4336 68.2602Z" fill="#FAFAFB"/>
<path id="Vector_13" d="M66.6498 47.2305L72.8927 67.28C92.4101 61.2027 106.834 51.788 105.11 46.2531C103.385 40.7137 86.1669 41.1534 66.6498 47.2305Z" fill="#EAE9E9"/>
</g>
<g id="Group_10">
<path id="Vector_14" d="M60.8427 28.5805L71.2109 61.8787C86.8857 56.998 98.4398 49.3397 97.2165 45.4111C92.8023 31.2347 76.5174 23.6997 60.8427 28.5805Z" fill="#DDDDDE"/>
<path id="Vector_15" d="M40.4528 63.0859C41.532 66.5517 55.5361 66.7595 71.2109 61.8787L60.8426 28.5805C45.1678 33.4612 36.0387 48.9096 40.4528 63.0859Z" fill="#EDEDEC"/>
<g id="Group_11">
<path id="Vector_16" d="M57.5944 22.9522L60.2135 31.3635C60.4482 32.1171 61.2483 32.5384 62.0017 32.3038L58.5327 21.1632C57.7794 21.3978 57.3598 22.1986 57.5944 22.9522Z" fill="#EDEDEC"/>
<path id="Vector_17" d="M58.533 21.1631L62.0018 32.3035C62.7554 32.0689 63.1749 31.2678 62.9403 30.5142L60.3212 22.1031C60.0864 21.3496 59.2863 20.9285 58.533 21.1631Z" fill="#D6D7D7"/>
</g>
</g>
<g id="Group_12">
<path id="Vector_18" d="M103.962 62.687C104.962 65.898 103.853 69.097 101.489 69.8331C99.1221 70.5702 96.3966 68.5652 95.3967 65.354C94.3968 62.1428 95.5022 58.9449 97.8693 58.2079C100.233 57.4717 102.962 59.4758 103.962 62.687Z" fill="#9EB6B9"/>
<path id="Vector_19" d="M53.2761 78.4693C54.276 81.6803 53.167 84.8795 50.8015 85.6161C48.4358 86.3527 45.7087 84.3482 44.7088 81.137C43.7089 77.9258 44.8159 74.7274 47.1817 73.9908C49.5472 73.2543 52.2762 75.2581 53.2761 78.4693Z" fill="#C2CFD0"/>
</g>
<path id="Vector_20" d="M50.834 50.0982C53.0483 49.4087 54.2844 47.0547 53.5949 44.8405C52.9054 42.6262 50.5515 41.3901 48.3372 42.0796C46.1229 42.769 44.8868 45.123 45.5763 47.3373C46.2658 49.5515 48.6197 50.7876 50.834 50.0982Z" fill="white"/>
<g id="Group_13">
<path id="Vector_21" d="M69.2526 77.6891C70.3318 81.1548 74.0158 83.0869 77.4786 82.0086L73.5722 69.4631C70.1094 70.5413 68.1739 74.2246 69.2526 77.6891Z" fill="#C2CFD0"/>
<path id="Vector_22" d="M73.5725 69.463L77.4789 82.0086C80.9447 80.9294 82.8777 77.2484 81.7985 73.7826C80.7198 70.3182 77.0381 68.3839 73.5725 69.463Z" fill="#9EB6B9"/>
</g>
<g id="Group_14">
<path id="Vector_23" d="M54.8859 22.9265C55.5437 25.039 57.7907 26.2165 59.9018 25.5591L57.5201 17.9101C55.409 18.5675 54.2281 20.814 54.8859 22.9265Z" fill="#EDEDEC"/>
<path id="Vector_24" d="M57.5201 17.9101L59.9019 25.5591C62.013 24.9017 63.1943 22.6568 62.5365 20.5443C61.8787 18.4318 59.6311 17.2528 57.5201 17.9101Z" fill="#D6D7D7"/>
</g>
<path id="Vector_25" d="M58.5986 21.0194C58.8776 21.9153 58.3755 22.8667 57.481 23.1452C56.5837 23.4247 55.6331 22.9255 55.3542 22.0297C55.0752 21.1339 55.5735 20.1804 56.4709 19.901C57.3653 19.6225 58.3197 20.1236 58.5986 21.0194Z" fill="white"/>
</g>
</g>
</g>
<defs>
<clipPath id="clip0_21_130">
<rect width="120.487" height="120.487" fill="white" transform="translate(0 35.8205) rotate(-17.2954)"/>
</clipPath>
</defs>
</svg>
