<svg width="153" height="153" viewBox="0 0 153 153" fill="none" xmlns="http://www.w3.org/2000/svg">
<g id="_x35_" clip-path="url(#clip0_24_255)">
<g id="SVGRepo_iconCarrier">
<g id="Group">
<g id="Group_2">
<g id="Group_3">
<path id="Vector" d="M54.911 89.6631C52.7943 95.8323 46.0788 99.117 39.91 97.0005C33.7422 94.8843 30.4563 88.168 32.5729 81.9989C34.6892 75.8308 41.4067 72.5455 47.5745 74.6617C53.7433 76.7782 57.0273 83.495 54.911 89.6631Z" fill="#F9D791"/>
<g id="Group_4">
<path id="Vector_2" d="M107.137 107.582C105.021 113.751 98.3048 117.036 92.1356 114.919C85.9665 112.803 82.6818 106.087 84.7985 99.9176C86.9148 93.7495 93.6309 90.4638 99.8001 92.5804C105.969 94.6971 109.254 101.414 107.137 107.582Z" fill="#F5BF41"/>
</g>
</g>
</g>
<g id="Group_5">
<path id="Vector_3" d="M56.2434 93.1571C53.841 100.159 57.5689 107.783 64.5723 110.186L73.2722 84.8296C66.2688 82.4267 58.6459 86.1548 56.2434 93.1571Z" fill="#F9D791"/>
<path id="Vector_4" d="M73.2725 84.8297L64.5725 110.186C71.5762 112.589 79.1994 108.86 81.6018 101.858C84.0043 94.8553 80.2761 87.2326 73.2725 84.8297Z" fill="#F9D791"/>
</g>
<g id="Group_6">
<g id="Group_7">
<path id="Vector_5" d="M81.6277 60.4779L80.2689 57.6993L78.9103 54.9194C49.082 46.0394 21.119 51.9522 17.3836 62.8393C17.0643 63.77 16.9218 64.7442 16.9433 65.7539C17.0573 71.4673 22.4506 78.3419 31.448 85.0193C40.3395 91.6225 52.7507 98.0311 67.0585 102.94L81.6274 60.4778L81.6277 60.4779Z" fill="#EAEAEA"/>
<path id="Vector_6" d="M87.1852 57.7581L84.4061 59.1184L81.6275 60.4774L67.0585 102.94C81.3692 107.85 95.0973 110.41 106.171 110.657C117.372 110.91 125.85 108.794 129.448 104.354C130.085 103.571 130.569 102.714 130.889 101.783C134.624 90.8958 116.183 69.0616 87.1852 57.7581Z" fill="#D3D3D3"/>
</g>
<path id="Vector_7" d="M129.448 104.354L84.4061 59.1187L81.6275 60.4777L106.171 110.657C117.373 110.91 125.851 108.794 129.448 104.354Z" fill="#C7C6C6"/>
<path id="Vector_8" d="M78.9102 54.9189C49.0821 46.0392 21.119 51.952 17.3836 62.8392C17.0643 63.7698 16.9219 64.7441 16.9434 65.7538L80.2687 57.6991L78.9102 54.9189Z" fill="#FAFAFB"/>
<path id="Vector_9" d="M31.448 85.0192C40.3395 91.6224 52.7507 98.031 67.0585 102.94L81.6275 60.4776L31.448 85.0192Z" fill="#E3E2E2"/>
</g>
<g id="Group_8">
<path id="Vector_10" d="M48.4069 44.2076L42.1138 62.5493C40.149 68.2758 54.1005 78.2517 73.2725 84.8296L80.1133 64.8916C60.9414 58.3136 46.7444 49.0529 48.4069 44.2076Z" fill="#DDDDDE"/>
<path id="Vector_11" d="M80.1132 64.8916L73.2724 84.8296C92.4444 91.4076 109.582 92.0985 111.547 86.3721L117.84 68.0304C116.178 72.8756 99.2849 71.4694 80.1132 64.8916Z" fill="#D6D7D7"/>
</g>
<g id="Group_9">
<path id="Vector_12" d="M47.5101 46.331C45.6363 51.7923 59.7267 61.5763 78.9838 68.1834L85.771 48.4014C66.514 41.7943 49.3853 40.8654 47.5101 46.331Z" fill="#FAFAFB"/>
<path id="Vector_13" d="M85.771 48.4014L78.9837 68.1834C98.2408 74.7906 115.37 75.718 117.244 70.2569C119.119 64.7914 105.028 55.0085 85.771 48.4014Z" fill="#EAE9E9"/>
</g>
<g id="Group_10">
<path id="Vector_14" d="M92.0846 30.0001L80.8123 62.8542C96.278 68.1606 110.068 68.8098 111.398 64.9335C116.197 50.9463 107.55 35.3064 92.0846 30.0001Z" fill="#DDDDDE"/>
<path id="Vector_15" d="M55.3917 45.7176C54.2184 49.1371 65.3465 57.5479 80.8122 62.8542L92.0845 30.0001C76.6188 24.6938 60.1907 31.7303 55.3917 45.7176Z" fill="#EDEDEC"/>
<g id="Group_11">
<path id="Vector_16" d="M92.7883 23.5665L89.9409 31.8656C89.6857 32.6092 90.0805 33.4186 90.8238 33.6736L94.5952 22.6816C93.8519 22.4266 93.0434 22.8229 92.7883 23.5665Z" fill="#EDEDEC"/>
<path id="Vector_17" d="M94.5955 22.6817L90.8241 33.6735C91.5677 33.9286 92.3762 33.532 92.6314 32.7885L95.4787 24.4895C95.7336 23.7459 95.3388 22.9367 94.5955 22.6817Z" fill="#D6D7D7"/>
</g>
</g>
<g id="Group_12">
<path id="Vector_18" d="M106.647 82.7832C105.56 85.9513 102.787 87.8689 100.454 87.0685C98.1186 86.2672 97.1094 83.0521 98.1965 79.8837C99.2835 76.7153 102.054 74.797 104.39 75.5983C106.722 76.3987 107.734 79.6148 106.647 82.7832Z" fill="#82B0B6"/>
<path id="Vector_19" d="M56.6377 65.6248C55.5507 68.7929 52.7765 70.7102 50.4425 69.9095C48.1084 69.1086 47.0978 65.893 48.1849 62.7246C49.2719 59.5562 52.044 57.6385 54.378 58.4392C56.7119 59.24 57.7247 62.4564 56.6377 65.6248Z" fill="#8ECACF"/>
</g>
<path id="Vector_20" d="M71.3771 41.3948C73.5618 42.1444 75.9406 40.981 76.6901 38.7962C77.4397 36.6115 76.2763 34.2327 74.0916 33.4831C71.9068 32.7336 69.5281 33.897 68.7785 36.0817C68.0289 38.2665 69.1923 40.6452 71.3771 41.3948Z" fill="white"/>
<g id="Group_13">
<path id="Vector_21" d="M69.9319 74.4029C68.7587 77.8225 70.5809 81.5433 73.9975 82.7155L78.2445 70.3373C74.8279 69.165 71.1047 70.9847 69.9319 74.4029Z" fill="#8ECACF"/>
<path id="Vector_22" d="M78.2448 70.3374L73.9977 82.7156C77.4173 83.8889 81.1371 82.0696 82.3104 78.65C83.4832 75.2318 81.6641 71.5105 78.2448 70.3374Z" fill="#82B0B6"/>
</g>
<g id="Group_14">
<path id="Vector_23" d="M90.6275 21.9514C89.9124 24.0357 91.0244 26.3044 93.1074 27.019L95.6967 19.4721C93.6138 18.7574 91.3427 19.867 90.6275 21.9514Z" fill="#EDEDEC"/>
<path id="Vector_24" d="M95.6968 19.4721L93.1074 27.019C95.1904 27.7337 97.4609 26.6256 98.1761 24.5413C98.8912 22.457 97.7795 20.1867 95.6968 19.4721Z" fill="#D6D7D7"/>
</g>
<path id="Vector_25" d="M94.7329 22.6049C94.4296 23.4888 93.4662 23.9576 92.5836 23.6548C91.6982 23.351 91.2284 22.3904 91.5317 21.5066C91.8349 20.6227 92.7965 20.15 93.6819 20.4538C94.5644 20.7566 95.0361 21.721 94.7329 22.6049Z" fill="white"/>
</g>
</g>
</g>
<defs>
<clipPath id="clip0_24_255">
<rect width="120" height="120" fill="white" transform="translate(38.9438) rotate(18.9372)"/>
</clipPath>
</defs>
</svg>
