<svg width="235" height="235" viewBox="0 0 235 235" fill="none" xmlns="http://www.w3.org/2000/svg">
<g id="Layer_1" clip-path="url(#clip0_29_3808)">
<g id="SVGRepo_iconCarrier">
<path id="Vector" d="M122.397 0H112.607V127.29H122.397V0Z" fill="#434A54"/>
<path id="Vector_2" d="M117.502 117.5C52.6094 117.5 0.00195312 170.104 0.00195312 235H234.998C234.998 170.104 182.395 117.5 117.502 117.5Z" fill="#E6E9ED"/>
<path id="Vector_3" d="M220.311 78.3285H151.771V19.5785H220.311L210.529 48.9535L220.311 78.3285Z" fill="#DA4453"/>
<path id="Vector_4" d="M181.147 0H122.397V58.75H181.147V0Z" fill="#ED5565"/>
<g id="Group">
<path id="Vector_5" d="M73.4395 195.828C73.4395 203.947 66.8631 210.516 58.752 210.516C50.6408 210.516 44.0645 203.947 44.0645 195.828C44.0645 187.717 50.6408 181.141 58.752 181.141C66.8631 181.141 73.4395 187.717 73.4395 195.828Z" fill="#CCD1D9"/>
<path id="Vector_6" d="M181.147 215.415C189.259 215.415 195.835 208.839 195.835 200.728C195.835 192.616 189.259 186.04 181.147 186.04C173.036 186.04 166.46 192.616 166.46 200.728C166.46 208.839 173.036 215.415 181.147 215.415Z" fill="#CCD1D9"/>
<path id="Vector_7" d="M137.084 166.453C137.084 177.275 128.317 186.039 117.502 186.039C106.687 186.039 97.9199 177.275 97.9199 166.453C97.9199 155.639 106.687 146.875 117.502 146.875C128.317 146.875 137.084 155.639 137.084 166.453Z" fill="#CCD1D9"/>
</g>
</g>
</g>
<defs>
<clipPath id="clip0_29_3808">
<rect width="235" height="235" fill="white"/>
</clipPath>
</defs>
</svg>
